<?xml version="1.0" encoding="utf-8"?>
<!-- Generator: Adobe Illustrator 25.4.1, SVG Export Plug-In . SVG Version: 6.00 Build 0)  -->
<svg version="1.1" id="Ebene_1" xmlns="http://www.w3.org/2000/svg" xmlns:xlink="http://www.w3.org/1999/xlink" x="0px" y="0px"
	 viewBox="0 0 25 25" style="enable-background:new 0 0 25 25;" xml:space="preserve">
<style type="text/css">
	.st0{fill:#FFFFFF;}
	.st1{fill:#B8000A;}
</style>
<g>
	<line class="st0" x1="-0.2" y1="-0.2" x2="24.9" y2="25"/>
	<path class="st1" d="M-0.2-0.2c2.2,2,4.4,4,6.6,6c2.2,2,4.3,4.1,6.4,6.2c2.1,2.1,4.2,4.2,6.2,6.4l3,3.2c1,1.1,2,2.2,3,3.3
		c-1.1-1-2.2-2-3.3-3l-3.2-3c-2.2-2-4.3-4.1-6.4-6.2c-2.1-2.1-4.2-4.2-6.2-6.4C3.7,4.3,1.7,2.1-0.2-0.2z"/>
</g>
<g>
	<line class="st0" x1="24.9" y1="-0.2" x2="-0.2" y2="25"/>
	<path class="st1" d="M24.9-0.2c-2,2.2-4,4.4-6,6.6c-2,2.2-4.1,4.3-6.2,6.4C10.6,14.9,8.5,17,6.3,19l-3.2,3c-1.1,1-2.2,2-3.3,3
		c1-1.1,2-2.2,3-3.3l3-3.2c2-2.2,4.1-4.3,6.2-6.4c2.1-2.1,4.2-4.2,6.4-6.2C20.5,3.8,22.7,1.8,24.9-0.2z"/>
</g>
</svg>
