<?xml version="1.0" encoding="utf-8"?>
<!-- Generator: Adobe Illustrator 25.4.1, SVG Export Plug-In . SVG Version: 6.00 Build 0)  -->
<svg version="1.1" id="Ebene_1" xmlns="http://www.w3.org/2000/svg" xmlns:xlink="http://www.w3.org/1999/xlink" x="0px" y="0px"
	 viewBox="0 0 756 1080" style="enable-background:new 0 0 756 1080;" xml:space="preserve">
<style type="text/css">
	.st0{opacity:0.29;}
	.st1{fill:url(#SVGID_1_);}
	.st2{fill:url(#SVGID_00000094595240707420162240000001483548320968416916_);}
</style>
<g class="st0">
	<g>
		
			<linearGradient id="SVGID_1_" gradientUnits="userSpaceOnUse" x1="1609.2614" y1="3351.6912" x2="2790.5894" y2="3351.6912" gradientTransform="matrix(-0.3218 0.9468 -0.9468 -0.3218 4250.9668 -452.8722)">
			<stop  offset="0" style="stop-color:#B8000A"/>
			<stop  offset="1" style="stop-color:#D94F50;stop-opacity:0"/>
		</linearGradient>
		<path class="st1" d="M160.2,1076.3c1.1-3.2-1.3-9.5-7.1-19c-5.8-9.5-8-16.2-6.7-20.2c2.2-6.4,8.3-10.9,18.3-13.6
			c10.1-2.8,19-2.8,26.8-0.2c11.7,4,20.7,10.9,26.8,20.9c6.2,10,7.4,20.5,3.7,31.5c-0.8,2.4-1.7,3.8-2.8,4.3l-1.6,4.7
			c33.6-0.9,54.9-14.6,63.9-41.3c3.7-11-2.3-30.5-18.1-58.7c17.3-2,32.5-5.6,45.7-10.7l9.2-14l0.2-0.6c-0.6-0.2-1.1-0.4-1.6-0.8
			l-6.4,11.2c-2.8,1.1,1.5-22.5-1.3-21.5c-45.2,16.1-86.6,17.7-124.3,4.9c-37.6-12.8-51.8-33-42.4-60.5c1.9-5.5,11.2-12.4,28.1-20.7
			c5.3-10.5-3.8-19.7-27.3-27.7c-29.8-10.1-54.7,1.5-74.9,34.9c-21.6-31.8-25.1-68.9-10.8-111.3c11.7-34.5,32.7-60.9,63-79
			c30.2-18.1,61.8-21.6,94.8-10.4c14.9,5.1,27.2,15.8,36.9,32.2c9.7,16.4,11.9,32.5,6.6,48.2c-6.7,19.6-20.2,25.9-40.5,19
			c-7-2.4-13.1-16.7-18.2-42.9c-20.7,4.3-34.1,15.5-40.2,33.6c-5.6,16.5-3.1,33.7,7.3,51.7c10.5,18,24.4,29.9,41.6,35.8
			c18.8,6.4,39.6,5.8,62.3-1.8c22.7-7.6,38-19.2,46-34.9l8-15.7c14,28.4,28.8,45.2,44.5,50.6c1.9,0.7,4,1,6.3,1.2l-1.3,2.4
			c3.6,0,7.2,0.3,10.9,0.6l2.9-4.4c2.7-0.7,5.6-1.7,8.6-2.9c11.2-4.5,17.8-9.9,19.9-16.2c2.9-8.4,3.4-17.4,1.8-27l1.2-1.8
			c-2.4-5.7-4.1-11.4-5.3-17.1c-0.1-0.2-0.2-0.4-0.4-0.6l-1.8,3.2c-2.8-3.7-6.4-6.3-10.9-7.8c-3.1-1.1-8.4,0.2-15.7,3.8
			c0.2,4.5,2.7,11.4,7.3,20.9c2.2,3.2,3.7,6.3,4.4,9.2l-13,22.8c-2.6,0.4-5.4,0-8.6-1c-16.5-5.6-28.9-20.8-37.2-45.5
			c-1.8-5-7.4-28.8-16.6-71.3c-11.4-28.4-31-50.8-58.8-67.2c7.7-9.7,25.8-21.9,54.4-36.6c34.6-17.1,55.5-28.4,62.6-33.9
			c24.7-18.7,42-42.6,51.9-71.6c30.7-90.2,5.3-157.9-76-203c-21.3-47.5-25.3-90.9-12-130.1c7.7-22.8,19.2-39.8,34.5-51.3
			c-7.3,42.1-3.8,82.5,10.7,121.1c14.5,38.6,38,70.4,70.6,95.5c4.5-0.2,7.3-2.3,8.7-6.2c-28.4-31.5-44.3-62.8-47.7-93.7
			c-3.2-26.5,2.6-61.3,17.2-104.4c0.3-0.8,6.7-13.5,19.4-38c6.2-0.5,12.5,0.3,18.7,2.4c20.2,6.9,27.2,19.3,21.1,37.3
			c-1.6,4.7-6.8,9.1-15.6,13.1c-8.8,4-13.9,8-15.2,11.9c-2.4,7-0.1,15.1,6.9,24c7,9,14.9,14.9,23.5,17.8c6.3,2.1,17.1-0.6,32.3-8.1
			c15.2-7.5,23.9-14.4,26.1-20.7c16-47.1-0.2-78.8-48.7-95.3c-12.5-4.2-23.7-7.2-33.6-8.8C480,55.7,495,39.6,518,28.6
			c23-11,45-12.9,66.1-5.8c26.6,9,45.5,24,56.8,44.9c11.2,20.9,12.5,44.3,3.7,70.2c-6.1,18-25.8,42.4-58.9,73.2
			c-33.1,30.7-51.2,50.4-54.1,59c-13.1,38.4-12.1,85.8,2.9,142.1c13,49,32.8,84.8,59.4,107.6c0.5,0.4,0.2,0.9-0.5,1.6
			c1.8,1.7,3.4,3.6,4.8,5.6c1.6,0.4,3.2,0.8,4.8,1.2l12.8-19.5c-22.9-30.5-29.5-59.9-19.9-88.2c5.1-14.9,26.2-39.7,63.3-74.3
			c37.1-34.6,60.2-65.3,69.3-91.9c19.2-56.5,6.4-117.7-38.5-183.7c-19.7-29.5-49.9-51.1-90.6-64.9c-62.6-21.3-122.6-8-180,39.9
			c-18.7,21.6-30,37-34,46.2c-9.9,1-22,12.2-36.3,33.6c-12.1,17.7-20.5,33.3-25,46.6c-11.2,32.9-11.3,65.3-0.4,97
			c8.4,16,16.5,29.2,24.2,39.7c-26.4-9.9-55-6.2-85.7,10.9c-30.8,17.1-50.8,39.4-60.1,66.9c-7.5,22-6.3,44,3.4,66.1
			c9.8,22.1,25.4,36.8,46.8,44.1c16.7,5.7,32.7,4.3,47.9-4.1c15.3-8.4,25.7-20.8,31.3-37.3c1.3-3.9,1.7-7.7,1.2-11.4
			c-8.1-0.1-15.4-1.3-21.9-3.5c-17.9-6.1-23.6-18.5-17.2-37.4c3.2-9.4,12.9-16.2,29.1-20.3c16.2-4.1,30.2-4.2,41.9-0.2
			c19.5,6.6,34,19.4,43.2,38.3c9.3,18.9,10.6,38.1,3.9,57.7c-19.7,57.9-65.5,74.7-137.4,50.2c2.4,0.8-8.5-4.5-32.5-15.9
			c1.2,19.7,21.8,40.7,61.7,63c-107.7,1.9-168.8,24.1-183.2,66.5c-0.3,0.8-0.1,3.7,0.3,8.6c0.5,5,0.5,8.3-0.1,9.8
			c-0.3,0.8-4.3,3.8-12.2,9c-31.1,20.1-53.6,50.6-67.5,91.4c-14.7,43.2-13.8,81.6,2.7,115.3c4.4,10.2,10.7,19.8,19,28.8
			c2.2,21.8,3.9,34.6,5.2,38.6c5.1,13.1,16.8,22.4,35.1,27.7c-6.9,7.3-13.4,14.5-19.8,21.5c-6.3,7-10.8,14.5-13.5,22.4
			c-11.7,34.6,1.6,58.4,40,71.4C137.6,1096.4,154.5,1092.9,160.2,1076.3z"/>
		
			<linearGradient id="SVGID_00000033353015786520915520000016021080038861912248_" gradientUnits="userSpaceOnUse" x1="2382.0928" y1="3164.8755" x2="2393.1333" y2="3164.8755" gradientTransform="matrix(-0.3218 0.9468 -0.9468 -0.3218 4250.9668 -452.8722)">
			<stop  offset="0" style="stop-color:#D94F50"/>
			<stop  offset="1" style="stop-color:#B8000A"/>
		</linearGradient>
		
			<line style="fill:url(#SVGID_00000033353015786520915520000016021080038861912248_);" x1="482" y1="782.1" x2="490.2" y2="796.5"/>
	</g>
</g>
</svg>
