<?xml version="1.0" encoding="utf-8"?>
<!-- Generator: Adobe Illustrator 25.4.1, SVG Export Plug-In . SVG Version: 6.00 Build 0)  -->
<svg version="1.1" id="Ebene_1" xmlns="http://www.w3.org/2000/svg" xmlns:xlink="http://www.w3.org/1999/xlink" x="0px" y="0px"
	 viewBox="0 0 1308 532" style="enable-background:new 0 0 1308 532;" xml:space="preserve">
<style type="text/css">
	.st0{opacity:0.29;}
	.st1{fill:url(#SVGID_1_);}
	.st2{fill:url(#SVGID_00000156545687960971368530000004349288125558939533_);}
</style>
<g class="st0">
	<g>
		
			<linearGradient id="SVGID_1_" gradientUnits="userSpaceOnUse" x1="1940.2614" y1="3059.6912" x2="3121.5894" y2="3059.6912" gradientTransform="matrix(1 -5.320046e-03 5.320046e-03 1 -1846.5438 -2786.7261)">
			<stop  offset="0" style="stop-color:#FFFFFF"/>
			<stop  offset="1" style="stop-color:#000000"/>
		</linearGradient>
		<path class="st1" d="M1265.1,285.9c-3.4,0-8.6,4.3-15.6,12.9c-7.1,8.6-12.7,12.9-16.9,12.9c-6.7,0-13-4.3-18.9-12.9
			c-5.9-8.7-8.9-17.1-8.9-25.3c-0.1-12.4,3.6-23.1,11-32.2c7.4-9.1,16.9-13.7,28.5-13.8c2.5,0,4.1,0.4,5,1.2l5,0
			c-11.8-31.4-31.7-47.1-59.9-46.9c-11.6,0.1-28.1,12.1-49.5,36.3c-7.4-15.5-15.6-28.5-24.6-39.1c-2,0.2-4,0.5-6,0.8
			c-4.5,2.2-20.4,5.1-18.9,7c30,37.4,45.1,76.1,45.3,115.9c0.2,39.8-14.2,59.7-43.3,59.9c-5.8,0-15.4-6.6-28.8-19.7
			c-11.6-1.6-17.4,10-17.3,34.9c0.2,31.5,19.3,51.2,57.5,59.3c-23,30.8-56.9,46.3-101.6,46.5c-36.5,0.2-68.2-11-95.3-33.7
			c-27-22.6-40.6-51.4-40.8-86.2c-0.1-15.8,6-30.9,18.4-45.4c12.3-14.6,26.8-21.9,43.4-22c20.7-0.1,31.1,10.6,31.2,32.1
			c0,7.4-11.5,17.8-34.6,31.2c10.9,18.1,25.8,27.2,44.9,27.1c17.4-0.1,32.9-8.1,46.5-23.8c13.6-15.8,20.3-32.8,20.2-51
			c-0.1-19.9-7.5-39.3-22.1-58.2c-14.6-19-30.6-29.7-48-32l-17.4-2.4c22.2-22.5,33.3-42,33.3-58.5c-0.8-32.6-27.1-38.4-33.8-38.3
			c-8.9,0-31-0.2-39.5,18.4c-4.5,13.3-4.6,26.6,5,26.5s-14.9,0.6,17.3-13.8s33-2.3,33-2.3c1.2,2.3,1.8,5.1,1.8,8.4
			c0.1,17.5-10.2,34.1-30.8,50c-4.1,3.4-24.8,16.3-61.9,39c-23.1,20.1-37.9,45.9-44.3,77.6c-11.6-4.1-29.1-17.2-52.4-39.4
			c-27.5-27.1-45-43.2-52.4-48.1c-25.8-17.2-54-25.8-84.6-25.6c-95.3,0.5-150.9,46.6-167,138.2c-37.9,35.7-77.6,53.6-119,53.8
			c-24,0.1-43.9-5.2-59.7-15.8c42.2-6.9,79.2-23.4,111-49.7c31.8-26.3,54.1-58.9,67.2-97.9c-1.7-4.1-4.6-6.2-8.7-6.2
			c-20.5,37.1-44.8,62.4-72.9,75.7c-24,11.6-58.7,17.6-104.3,17.8c-0.8,0-14.9-2-42.3-5.9c-2.5-5.7-3.8-11.9-3.8-18.4
			c-0.1-21.3,9.4-32,28.4-32.1c5,0,10.8,3.5,17.5,10.5c6.7,7,12.1,10.5,16.2,10.5c7.4,0,14.3-4.8,20.4-14.4c6.2-9.6,9.2-18.9,9.2-28
			c0-6.6-6.1-15.9-18.2-27.9c-12.1-12-21.4-17.9-28.1-17.9c-49.7,0.3-74.4,26-74.2,77.1c0.1,13.2,1,24.7,2.7,34.6
			c-22.4,0.1-42.5-8.9-60.4-27c-17.9-18.1-26.9-38.3-27-60.6c-0.1-28.1,7.8-50.9,23.9-68.3c16-17.5,37.8-26.2,65.1-26.4
			c19.1-0.1,48.5,10.5,88.4,31.8c39.9,21.3,64.4,31.9,73.5,31.8c40.6-0.2,85-16.6,133.3-49.1c42-28.3,69.4-58.7,82.3-91.3
			c0.2-0.6,0.8-0.5,1.7,0c1-2.2,2.3-4.3,3.7-6.4c-0.2-1.7-0.3-3.3-0.4-4.9L579.8,41c-21.4,31.6-47,47.5-76.8,47.6
			c-15.8,0.1-46-11.8-90.9-35.6c-44.9-23.8-81.4-35.6-109.5-35.5c-59.6,0.3-113.3,32.5-161,96.4c-21.4,28.3-32,63.9-31.7,106.9
			c0.4,66.2,32.5,118.5,96.5,157.1c26.6,10.6,44.8,16.3,54.8,17.1c4.2,9.1,18.7,16.8,43.6,23.3c20.7,5.7,38.2,8.5,52.2,8.4
			c34.8-0.2,65.4-10.6,91.8-31.3c12.4-13.2,22.2-25.2,29.6-35.8c-0.7,28.2,12.1,54,38.3,77.5c26.2,23.5,53.8,35.1,82.8,35
			c23.2-0.1,43.6-8.4,61.4-24.9c17.7-16.5,26.5-36,26.4-58.7c-0.1-17.6-6.6-32.3-19.5-43.9c-12.9-11.7-28.1-17.5-45.4-17.4
			c-4.2,0-7.9,0.9-11.2,2.6c2.5,7.7,3.8,15,3.8,21.9c0.1,18.9-9.8,28.4-29.7,28.5c-9.9,0.1-19.5-6.9-28.7-20.9
			c-9.2-14-13.8-27.2-13.9-39.5c-0.1-20.6,7.2-38.4,22-53.4c14.8-15,32.5-22.5,53.2-22.6c61.2-0.3,92,37.5,92.4,113.5
			c0-2.5-1.5,9.5-4.4,35.9c18.2-7.6,31.3-33.9,39.4-78.9c37,101.2,78,151.6,122.8,151.4c0.8,0,3.5-1.1,8.1-3.1
			c4.6-2.1,7.7-3.1,9.3-3.2c0.8,0,5,2.8,12.5,8.6c29.1,22.8,65.3,34.1,108.4,33.9c45.6-0.2,81.6-13.7,108-40.2
			c8.2-7.5,15.2-16.6,21-27.4c19.8-9.2,31.4-15,34.8-17.5c10.7-9.1,15.6-23.2,14.7-42.2c9.1,4.1,18.1,8,26.8,11.7
			c8.7,3.7,17.2,5.5,25.6,5.5c36.5-0.2,54.6-20.6,54.4-61.2C1291.5,300.6,1282.7,285.8,1265.1,285.9z"/>
		
			<linearGradient id="SVGID_00000159437298422033676290000009148447027233153161_" gradientUnits="userSpaceOnUse" x1="2713.0928" y1="2872.8755" x2="2724.1333" y2="2872.8755" gradientTransform="matrix(1 -5.320046e-03 5.320046e-03 1 -1846.5438 -2786.7261)">
			<stop  offset="0" style="stop-color:#FFFFFF"/>
			<stop  offset="1" style="stop-color:#000000"/>
		</linearGradient>
		
			<line style="fill:url(#SVGID_00000159437298422033676290000009148447027233153161_);" x1="881.8" y1="77.9" x2="892.8" y2="65.4"/>
	</g>
</g>
</svg>
