<?xml version="1.0" encoding="utf-8"?>
<!-- Generator: Adobe Illustrator 25.4.1, SVG Export Plug-In . SVG Version: 6.00 Build 0)  -->
<svg version="1.1" id="Ebene_1" xmlns="http://www.w3.org/2000/svg" xmlns:xlink="http://www.w3.org/1999/xlink" x="0px" y="0px"
	 viewBox="0 0 717 331" style="enable-background:new 0 0 717 331;" xml:space="preserve">
<style type="text/css">
	.st0{fill:#FFFFFF;}
</style>
<path class="st0" d="M697,166.8c0-0.1,0-0.2,0-0.3h0v-10.3h0c0-0.1,0-0.2,0-0.3v-14.8h0c-0.5-9.7-2.1-18.2-4.9-25.5
	c-3.4-8.8-8.7-16.1-15.9-21.9c-7.2-5.8-16.4-10.1-27.5-12.9s-24.5-4.2-40-4.2c-9.2,0-18.7,0.4-28.4,1.2c-9.7,0.8-19.5,1.6-29.5,2.5
	s-19.9,1.7-29.9,2.5S501,84,491.2,84c-14.1,0-27.8-1-41-2.9c-13.2-1.9-25.4-5.5-36.5-10.7c-11.1-5.2-20.8-12.4-29.2-21.7
	s-14.9-21.3-19.3-35.9h-1.7c-4.5,13.7-10.5,24.9-18,33.7S329.1,62.1,319,67s-21.2,8.4-33.4,10.2s-25,2.8-38.5,2.8
	c-12.5,0-25-0.7-37.6-1.9c-12.5-1.3-24.9-2.7-37-4.2s-24.1-2.9-35.8-4.2c-11.7-1.3-23.2-1.9-34.4-1.9c-14.5,0-26.9,1.4-37.2,4.3
	s-18.8,7.1-25.5,12.7c-6.7,5.6-11.6,12.6-14.7,21.1c-3.1,8.4-4.6,18.2-4.6,29.5v4.5c0,0.7,0,1.5,0,2.4s0.1,1.6,0.2,2.4l-0.5,0v33.6
	l0.5,0c-0.1,0.7-0.2,1.5-0.2,2.4s0,1.7,0,2.4v4.5c0,11.2,1.5,21,4.6,29.5c3.1,8.4,8,15.4,14.7,21c6.7,5.6,15.2,9.9,25.5,12.7
	s22.7,4.3,37.2,4.3c11.2,0,22.7-0.6,34.4-1.9c11.7-1.3,23.7-2.7,35.8-4.2c12.2-1.5,24.5-2.9,37-4.2c12.5-1.3,25-1.9,37.6-1.9
	c13.5,0,26.4,0.9,38.5,2.8s23.3,5.3,33.4,10.2c10.1,5,18.9,11.8,26.4,20.6c7.6,8.8,13.6,20,18,33.7h1.7
	c4.5-14.7,10.9-26.7,19.3-35.9s18.2-16.5,29.2-21.7c11.1-5.2,23.2-8.7,36.5-10.7c13.2-1.9,26.9-2.9,41-2.9c9.8,0,19.7,0.4,29.7,1.2
	s20,1.6,29.9,2.5c9.9,0.9,19.8,1.7,29.5,2.5s19.2,1.2,28.4,1.2c15.5,0,28.9-1.4,40-4.2c11.2-2.8,20.3-7.1,27.5-13
	c7.2-5.8,12.5-13.1,15.9-21.9c2.8-7.3,4.4-15.7,4.9-25.3h0L697,166.8L697,166.8z M373.6,94l-5.3-1.8l-2.5,5l-2.5-5L358,94l1.8-5.3
	l-5-2.5l5-2.5l-1.8-5.3l5.3,1.8l2.5-5l2.5,5l5.3-1.8l-1.8,5.3l5,2.5l-5,2.5L373.6,94z"/>
</svg>
