<?xml version="1.0" encoding="utf-8"?>
<!-- Generator: Adobe Illustrator 25.4.1, SVG Export Plug-In . SVG Version: 6.00 Build 0)  -->
<svg version="1.1" id="Ebene_1" xmlns="http://www.w3.org/2000/svg" xmlns:xlink="http://www.w3.org/1999/xlink" x="0px" y="0px"
	 viewBox="0 0 1385 891" style="enable-background:new 0 0 1385 891;" xml:space="preserve">
<style type="text/css">
	.st0{fill:#FFFFFF;}
	.st1{fill:#B8000A;}
</style>
<path class="st0" d="M623.5,467.2l2,50.4h-3.8c-5.9-17.8-11.1-30-15.7-36.5c-4.6-6.5-11.1-9.7-19.7-9.7h-2.4v132.2H601v4.2h-73.3
	v-4.2h17.1V471.4h-2.6c-8.6,0-15.2,3.4-19.9,10.1c-4.7,6.8-9.8,18.8-15.5,36.1H503l2-50.4H623.5z"/>
<path class="st0" d="M688.3,529.9c-4.3,0-8.1,2.8-11.3,8.3c-3.2,5.6-4.9,12.2-4.9,19.8v46.6h12.3v3.1h-54.3v-3.1h9.6v-76.5h-9.6V525
	h41.9v16.7c1.5-5.9,4.4-10.5,8.7-13.6c4.3-3.2,9.2-4.8,14.6-4.8c5.4,0,9.9,1.5,13.3,4.6c3.4,3.1,5.1,7.4,5.1,13
	c0,5.6-1.3,9.9-3.8,13c-2.6,3-6.5,4.5-11.7,4.5c-5.3,0-9.2-1.7-11.6-5.2c-2.5-3.5-2.8-8.3-1-14.4h6.3
	C694.8,532.8,693.6,529.9,688.3,529.9z"/>
<path class="st0" d="M755.4,566.9h5v-13.4c0-11-0.6-18.4-1.8-22.2c-1.2-3.8-3.6-5.7-7-5.7c-2.1,0-4,0.6-5.7,1.7
	c-1.7,1.1-2.5,2.6-2.5,4.5c0,1.9,0.3,3.9,1,5.8h4.3c0.9,2.4,1.4,5.4,1.4,8.8c0,3.4-1.5,6.4-4.3,8.9c-2.9,2.5-6.6,3.7-11,3.7
	c-10,0-15-4.8-15-14.4c0-14.3,12.1-21.4,36.3-21.4c13.8,0,23.3,2.3,28.6,7c5.3,4.7,7.9,13.3,7.9,25.8v35.3c0,6,1.7,9,5,9
	c3.9,0,6.3-6,7-17.9l2.6,0.2c-0.5,10.2-2.4,17.2-5.7,21c-3.4,3.8-8.9,5.7-16.5,5.7c-13.9,0-21.9-4.3-24-12.9
	c-1.5,4.4-3.8,7.7-6.8,9.7c-3,2.1-7.4,3.1-13.2,3.1c-17.2,0-25.7-7-25.7-21c0-8.2,3.3-13.9,9.8-17
	C731.8,568.5,741.9,566.9,755.4,566.9z M749.4,600c0.6,1.7,1.9,2.6,3.7,2.6c1.8,0,3.5-1.5,5-4.4c1.6-3,2.3-7,2.3-12.3v-16.2h-1.2
	c-7.2,0-10.8,5.3-10.8,15.8v2.8C748.5,594.3,748.8,598.2,749.4,600z"/>
<path class="st0" d="M909.1,607.8h-39.6l-1.9-12.7c-1.9,4.6-4.6,8.2-8.3,10.7c-3.7,2.5-9.1,3.7-16.3,3.7c-18,0-27-9.7-27-29v-52.3
	h-9.7V525h42.1v59.6c0,7,0.5,11.5,1.5,13.7c1,2.2,3,3.3,5.9,3.3c3,0,5.6-1.8,7.9-5.4c2.3-3.6,3.5-8.6,3.5-15v-53.2h-8V525h40.3v79.6
	h9.6V607.8z"/>
<path class="st0" d="M912.6,525h41.9v16c3.8-11.8,12.3-17.7,25.3-17.7s21,6.3,23.7,18.8c4.1-12.5,12.6-18.8,25.6-18.8
	c17,0,25.6,9.7,25.6,29v52.3h9.7v3.1h-48.2v-3.1h6.1v-56.5c0-8.8-0.8-14-2.3-15.5c-0.7-0.7-1.6-1-2.8-1c-3.4,0-6.3,2.3-8.9,6.8
	c-2.6,4.5-3.8,10.3-3.8,17.2v49h6.3v3.1h-44.7v-3.1h6.1v-56.5c0-8.8-0.8-14-2.3-15.5c-0.7-0.7-1.6-1-2.8-1c-3.2,0-6.2,2.5-8.8,7.4
	c-2.6,4.9-3.9,10.8-3.9,17.6v48h6.3v3.1h-48.2v-3.1h9.6v-76.5h-9.6V525z"/>
<path class="st0" d="M531.3,134c-1.2-0.6-2.5-1.1-3.8-1.6c0.2,1.1,0.4,2.2,0.7,3.2c0.1,0.3,0.2,0.7,0.3,1c0.5-0.4,1.1-0.7,1.6-1.1
	C530.5,134.9,530.9,134.4,531.3,134z"/>
<path class="st0" d="M640,324.6c25.9-16.7,59.8-20,87.8-33.8c6.2-6.2,11.7-13,16.2-20.7c2-3.4,3.9-6.8,6-10.2
	c4.1-6.7,6.5-14.1,9-21.4c4.1-12.1,4.7-24.8,2.8-37.4c-0.8-5-2.8-9.9-4.1-14.5c0,0,0,0,0-0.1c0,0,0,0,0,0c-0.2-0.1-0.1-0.1,0,0
	c0,0,0,0,0,0c0,0,0,0,0,0.1c4.9,9.3,9.3,18.6,9.8,29.6c0.5,10.3-0.4,20.4-3.3,30.2c-1.8,6.1-5,11.8-8.1,17.3
	c-3,5.4-6.5,10.5-10.2,15.4c-0.1,0.1-0.2,0.3-0.3,0.4c13-10.5,23.5-25.4,29.3-48.4c0.8-6.1,1-12.3,0-18.7
	c-2.1-12.8-6.5-24.7-13.7-35.1c-11.1-16.1-26.5-25.6-46.4-26.7c-13.3-0.8-25.3,2.9-34.6,13.1c-9.1,9.9-11.4,24.3-6,35
	c5.4,10.7,15.4,12.8,24.2,5.1c3.7,4,3.1,8.6-1.5,11c-4.2,2.2-8.7,2.1-13,0.5c-10.4-3.9-16.2-12-18.5-22.4
	c-3.2-14.8,2.8-26.5,14.2-35.3c17.1-13.3,35.9-13,54.9-5c22.4,9.4,35.3,27.6,43.4,49.7c0.4,1.2,0.8,2.4,1.1,3.6
	c0.9-9.9,1.1-20.8,0.6-33c-2.1-52-48.9-80.7-98.6-90.3c4.1,6.4,6.9,13.4,8.3,21.2c3.8,22.2-8.7,44.3-29,51.2
	c-17.8,6.1-39.9-0.4-50.7-15.3c-2.3-3.2-4-7.1-5.1-10.9c-1.8-6.4-0.4-12.5,4.9-16.6c5.4-4.2,11.7-3.8,18.1-1.5
	c0.8,0.3,1.6,0.8,2.5,1.2c2.3,1,3,2.5,1.8,4.7c-0.2,0.4-0.4,0.9-0.6,1.3c-3.4,6.9-3.4,13.8,2.4,20c5.9,6.4,13.4,8.3,21.6,6
	c8.5-2.4,13.8-8.2,16.3-16.2c4.9-15.9,2.9-31.7-6.1-46.5c-0.3-0.4-0.5-0.8-0.8-1.2c-5.4-0.6-10.7-0.9-16-1.1c3.6,2.6,6.4,6,8.5,10.2
	c5.5,11,6.6,22.5,3.5,33.9c-1.4,5.2-4.8,9.1-10.6,10.4c-4,0.9-7.5-1.1-8.9-4.9c0.8-0.4,1.7-0.8,2.6-1.2c9.9-4.8,15.9-12.4,16.1-23.5
	c0.2-10.8-5-19.2-14.5-24.9c-19.2-0.2-37.3,2.3-51.9,7.4c-23.4,8.2-37.7,20.3-47.5,31.5c0.3-1.6,0.6-3.2,0.6-4.8
	c0.1-2.5-0.3-5-0.6-7.5c-0.1-1.2-0.4-2.4-0.9-3.5c-0.8-1.6-1.9-3.1-3-4.5c-4.1-4.7-9.4-7.6-15.3-9.3c-4.6-1.4-9.3-2.2-14.1-1.1
	c-10.4,2.2-17.1,12.1-15,22.2c1.6,7.7,9,12.1,16.3,9.6c3.6-1.2,5.8-3.7,6.3-7.6c0.3-2.8-2.2-5.5-5.3-3.9c-0.4,0.2-0.8,0.4-1.3,0.5
	c-2.4,0.8-4.4,0-5.8-2c-2.4-3.6-0.9-8.3,3.2-9.9c3.1-1.2,6.2-0.9,9.2,0.2c7.4,2.8,12.4,7.9,14.6,15.6c0.5,1.8,1.1,3.6,1.2,5.4
	c0.2,2.9-0.1,5.8-1,8.7c-0.8,2.7-1.8,5.3-3.4,7.6c-4,5.8-9.3,9.3-15.6,11.2c-23.8-12.8-46.6-14.3-66.6-8.5
	c-7.1,3.4-13.5,7.9-18.8,13.8c-6.2,6.9-12.5,14.2-14.7,23.7c-2.2,9.4-4,18.9-0.5,28.6c3.2,9,8.1,16.7,16.2,21.7
	c5.9,3.6,12.3,6.4,19.7,5.5c9.3-1.1,15.6-7.2,15.9-15.9c0-1.4-0.3-2.7-0.5-4.2c3.3-1.9,9,0.8,10.1,5.2c1.2,4.5-0.4,8.1-3.3,11.7
	c-5.3,6.5-11.9,10.6-20.3,11.4c-10.7,1.1-20.2-2-28.7-8.4c-8.3-6.2-13.2-14.7-15.5-24.7c-1.7-7.3-2-14.6-0.6-22
	c0.7-3.7,0.8-7.7,2.4-10.8c3.6-6.9,7.3-13.8,12.2-19.7c2.7-3.2,5.7-6.2,9-8.8c-45.3,24.3-71.1,85.7-52.6,122.9
	c5.2,10.1-56.5-24.9-94.6,58.7c-6.4,14.1-6,29-11.4,37.5s-11.9,9.6-15.6,11.3c-6.6,3.1-13.1,1.5-19.2-4.6c-3.4-3.4-5.4-6.9-6-10.4
	c-0.6-3.6,0.1-6.4,2.2-8.5c2.1-2.1,5-3.6,8.7-4.5l9,9c6.3-2.9,11.8-6.7,16.3-11.2c4.6-4.6,6.9-10,6.9-16.4
	c0.1-6.4-3.1-12.8-9.5-19.2c-6.4-6.4-13.4-9.6-20.8-9.5c-7.5,0.1-14.6,3.4-21.2,10.1c-8.7,8.6-11.7,19-9.1,31.2
	c2.5,12.1,10.1,24.4,22.6,36.9c11.8,11.8,39.3,32.6,62.9,46.5c-5-10.5-7.5-21.7-9.3-33c-1.7-10.4-2.6-20.8-0.6-31.3
	c1.1-5.9,2.7-11.5,6.9-16.3c2.9-3.3,4.9-7.5,7.2-11.3c3.3-5.4,7.3-10.3,12.8-13.7c0.3-0.2,0.6-0.5,0.9-0.7
	c5.4-5.6,12.3-8.8,18.8-12.7c8.4-5.1,17.6-7.7,27.2-9.5c6.5-1.2,13-0.4,19.5,0.4c9,1.2,16.3,5.4,23.5,10.1c12,7.8,18.8,19.1,21.3,33
	c1.1,6.4,1,12.8-0.4,19.1c-0.2,0.4-0.3,0.8-0.3,1.4v0c-0.2,0.8-0.4,1.6-0.7,2.4c-0.2,0.7-0.3,1.5,0,2.4c0.2-0.5,0.4-0.9,0.6-1.4
	c-0.2,2.1-0.8,4.2-1.5,6.3c-0.2-0.1-0.4-0.2-0.5-0.3c-3.9,5.8-7.3,11.9-11.7,17.1c-8.4,9.9-19.1,16.3-32.5,17
	c-2.2,0.1-4.4,0-6.5-0.5c-11.5-2.5-17.3-12.1-13.3-23.3c1.4-4.1,4.1-7.9,6.7-11.5c2.2-3,3.6-2.9,6.4-0.4c3.6,3.1,7.4,5.8,12.2,6.5
	c10.2,1.5,21.3-5.5,25.5-15.9c1.9-4.6,2.5-9.5,1.6-14.2c-1.7-8.9-6-16.1-14.6-20.5c-8.1-4.1-16.3-8.2-25.4-8.7
	c-7-0.4-14.1-0.6-21,0.4c-5.5,0.8-10.8,3.4-16.1,5.6c-7.4,3-13.5,7.8-18.2,14.2c-2.7,3.8-4.8,8-7.4,11.9c-5.1,7.5-7.6,16-9.2,24.7
	c-4.2,23.4,0.3,44,14.1,61.4c7.4,3.5,13.7,5.6,17.9,5.6c0.2,0,0.4,0,0.6,0c3.5,0.9,6.9,1.6,10.3,2.3c3.2,1.7,4.4,3.3,7.9,1.4
	c20.4,3.1,36.6,2.5,36.6,2.5l224.3-1.6c0,0-4.2-2.7-9.3-7.6c-2.2,3.2-5.9,5.4-10.1,5.4h-91.8c-6.7,0-12.1-5.4-12.1-12.1V185.2
	c0-6.7,5.4-12.1,12.1-12.1h91.8c6.7,0,12.1,5.4,12.1,12.1V351C615,342.5,625.8,333.7,640,324.6z M693.4,169.3
	c-8.6,3.9-10.7,11.5-5.9,19.6c1,1.6,2.3,3.2,2.8,5c0.5,1.8,0.8,4.6-0.2,5.7c-1.8,1.9-4.2,0.6-6-1.1c-0.7-0.7-1.5-1.4-1.8-2.2
	c-1-2.6-2.4-5.3-2.6-8.1c-0.6-11.2,4.6-19.4,14.1-24.9c14.8-8.6,34.4-3.3,44.9,4.3c-2.7-1-4.7-1.8-6.7-2.3
	C718.7,161.7,705.9,163.8,693.4,169.3z"/>
<g>
	<path d="M534,667.7c-0.9,0-1.5-0.3-1.9-0.9c-0.3-0.6-0.3-1.3,0.1-2.2l12.3-27.5c0.3-0.7,0.7-1.2,1.1-1.5s1-0.5,1.6-0.5
		c0.5,0,1,0.2,1.5,0.5c0.5,0.3,0.9,0.8,1.2,1.5l12.3,27.5c0.4,0.9,0.4,1.6,0.1,2.2c-0.3,0.6-0.9,0.9-1.8,0.9c-0.7,0-1.2-0.2-1.6-0.5
		c-0.4-0.3-0.7-0.8-1-1.5l-2.6-6.1H539l-2.6,6.1c-0.3,0.7-0.6,1.2-1,1.6C535.1,667.6,534.6,667.7,534,667.7z M547.1,640.7l-6.4,15.1
		h12.9L547.1,640.7L547.1,640.7z"/>
	<path d="M574.9,667.8c-5.3,0-8-3-8-8.9v-11.6c0-1.5,0.8-2.3,2.3-2.3c1.5,0,2.3,0.8,2.3,2.3V659c0,1.8,0.4,3.1,1.1,3.9
		c0.7,0.8,1.9,1.3,3.4,1.3c1.7,0,3.1-0.6,4.2-1.7c1.1-1.1,1.6-2.7,1.6-4.6v-10.5c0-1.5,0.8-2.3,2.3-2.3c1.5,0,2.3,0.8,2.3,2.3v18.1
		c0,1.5-0.7,2.3-2.2,2.3s-2.2-0.8-2.2-2.3v-1.5c-0.7,1.3-1.7,2.3-2.9,2.9C577.8,667.5,576.4,667.8,574.9,667.8z"/>
	<path d="M600.5,667.8c-1.3,0-2.7-0.2-4.1-0.5c-1.4-0.3-2.7-0.8-3.8-1.5c-0.5-0.3-0.8-0.7-1-1.1c-0.1-0.5-0.1-0.9,0.1-1.3
		c0.2-0.4,0.5-0.7,0.9-0.8c0.4-0.2,0.9-0.1,1.4,0.2c1.2,0.6,2.3,1.1,3.4,1.4s2.2,0.4,3.2,0.4c1.6,0,2.8-0.3,3.6-0.9
		c0.8-0.6,1.2-1.3,1.2-2.3c0-0.8-0.3-1.4-0.8-1.8c-0.5-0.4-1.4-0.8-2.4-1l-4.3-0.9c-3.8-0.8-5.7-2.7-5.7-5.9c0-2.1,0.8-3.7,2.5-5
		c1.7-1.2,3.8-1.9,6.5-1.9c2.7,0,5.1,0.7,7,2c0.5,0.3,0.8,0.7,0.9,1.1s0,0.8-0.2,1.2c-0.2,0.4-0.5,0.6-0.9,0.8
		c-0.4,0.2-0.9,0.1-1.4-0.2c-0.9-0.5-1.8-0.9-2.7-1.2c-0.9-0.3-1.8-0.4-2.6-0.4c-1.6,0-2.8,0.3-3.6,0.9c-0.8,0.6-1.2,1.4-1.2,2.4
		c0,1.5,1,2.5,3,2.9l4.3,0.9c2,0.4,3.4,1.1,4.5,2c1,0.9,1.5,2.2,1.5,3.8c0,2.1-0.8,3.8-2.5,5C605.5,667.2,603.2,667.8,600.5,667.8z"
		/>
	<path d="M635,667.8c-1.9,0-3.6-0.5-5.1-1.4c-1.5-0.9-2.6-2.2-3.4-4c-0.8-1.7-1.2-3.8-1.2-6.1c0-2.4,0.4-4.4,1.2-6.1
		c0.8-1.7,1.9-3,3.4-4c1.4-0.9,3.2-1.4,5.1-1.4c1.7,0,3.1,0.4,4.4,1.1c1.3,0.7,2.3,1.7,2.9,2.9v-11.5c0-1.5,0.8-2.3,2.3-2.3
		c1.5,0,2.3,0.8,2.3,2.3v27.9c0,1.5-0.8,2.3-2.3,2.3c-1.5,0-2.3-0.8-2.3-2.3v-1.7c-0.7,1.3-1.6,2.3-2.9,3
		C638.2,667.5,636.7,667.8,635,667.8z M636.2,664.3c1.9,0,3.4-0.7,4.5-2c1.1-1.4,1.7-3.3,1.7-5.9c0-2.6-0.6-4.5-1.7-5.9
		c-1.1-1.3-2.7-2-4.5-2c-1.9,0-3.4,0.7-4.6,2c-1.1,1.3-1.7,3.3-1.7,5.9c0,2.6,0.6,4.5,1.7,5.9C632.8,663.6,634.3,664.3,636.2,664.3z
		"/>
	<path d="M663.7,667.8c-3.6,0-6.5-1-8.6-3.1c-2.1-2-3.1-4.8-3.1-8.4c0-2.3,0.5-4.3,1.4-6c0.9-1.7,2.2-3.1,3.8-4.1s3.5-1.4,5.6-1.4
		c3,0,5.4,1,7.2,2.9c1.8,1.9,2.6,4.6,2.6,8c0,1-0.6,1.5-1.8,1.5h-14.4c0.3,4.6,2.8,6.9,7.3,6.9c0.9,0,1.9-0.1,2.9-0.3
		c1-0.2,2-0.6,2.9-1.2c0.6-0.4,1.2-0.5,1.7-0.4c0.5,0.1,0.8,0.4,1,0.8c0.2,0.4,0.2,0.9,0.1,1.4s-0.5,0.9-1.1,1.3
		c-1,0.7-2.2,1.2-3.6,1.6C666.3,667.7,665,667.8,663.7,667.8z M663.1,648.1c-1.9,0-3.4,0.6-4.5,1.8c-1.1,1.2-1.8,2.7-2,4.7h12.4
		c-0.1-2.1-0.6-3.6-1.6-4.8C666.2,648.7,664.8,648.1,663.1,648.1z"/>
	<path d="M680,667.7c-1.5,0-2.3-0.8-2.3-2.3v-18.1c0-1.5,0.7-2.3,2.2-2.3c1.5,0,2.2,0.8,2.2,2.3v1.6c0.7-1.3,1.6-2.2,2.8-2.9
		c1.2-0.7,2.5-1,4.1-1c3.4,0,5.6,1.5,6.6,4.4c0.7-1.4,1.7-2.5,3-3.3c1.3-0.8,2.8-1.2,4.4-1.2c4.9,0,7.4,3,7.4,8.9v11.6
		c0,1.5-0.8,2.3-2.3,2.3c-1.5,0-2.3-0.8-2.3-2.3V654c0-1.9-0.3-3.2-1-4.1c-0.6-0.9-1.7-1.3-3.2-1.3c-1.7,0-3,0.6-3.9,1.7
		s-1.4,2.7-1.4,4.7v10.4c0,1.5-0.8,2.3-2.3,2.3c-1.5,0-2.3-0.8-2.3-2.3V654c0-1.9-0.3-3.2-1-4.1c-0.6-0.9-1.7-1.3-3.2-1.3
		c-1.7,0-3,0.6-3.9,1.7s-1.4,2.7-1.4,4.7v10.4C682.3,667,681.6,667.7,680,667.7z"/>
	<path d="M739.5,667.7c-1.6,0-2.4-0.8-2.4-2.4v-25.9h-9.6c-1.4,0-2-0.7-2-2c0-1.3,0.7-1.9,2-1.9h23.9c1.4,0,2.1,0.6,2.1,1.9
		c0,1.3-0.7,2-2.1,2h-9.6v25.9C741.8,666.9,741,667.7,739.5,667.7z"/>
	<path d="M760.1,667.8c-1.5,0-2.9-0.3-4.1-0.9s-2.2-1.4-2.9-2.4c-0.7-1-1.1-2.2-1.1-3.5c0-1.6,0.4-2.9,1.2-3.8s2.2-1.6,4.1-2
		c1.9-0.4,4.5-0.6,7.8-0.6h1.5v-1.2c0-1.7-0.4-3-1.1-3.7c-0.7-0.8-1.9-1.1-3.6-1.1c-1,0-2,0.1-3,0.4s-2.1,0.6-3.2,1.2
		c-0.6,0.3-1.2,0.3-1.6,0.1c-0.4-0.2-0.7-0.5-0.8-1c-0.2-0.5-0.1-0.9,0-1.4c0.2-0.5,0.6-0.8,1.1-1.1c1.3-0.6,2.6-1,3.9-1.3
		c1.3-0.3,2.5-0.4,3.7-0.4c3,0,5.3,0.7,6.7,2.2c1.4,1.4,2.2,3.7,2.2,6.7v11.6c0,1.5-0.7,2.3-2.1,2.3c-1.4,0-2.2-0.8-2.2-2.3v-1.7
		c-0.5,1.3-1.4,2.3-2.5,3C763,667.5,761.7,667.8,760.1,667.8z M761,664.6c1.6,0,3-0.6,4.1-1.7c1.1-1.1,1.6-2.6,1.6-4.3v-1.2h-1.5
		c-2.2,0-3.9,0.1-5.2,0.3c-1.3,0.2-2.1,0.6-2.7,1.1c-0.5,0.5-0.8,1.2-0.8,2.1c0,1.1,0.4,2.1,1.2,2.8
		C758.5,664.2,759.6,664.6,761,664.6z"/>
	<path d="M787.3,676c-1.6,0-3.2-0.2-4.7-0.5c-1.5-0.3-2.9-0.9-4.1-1.6c-0.5-0.3-0.9-0.7-1-1.1c-0.1-0.5-0.1-0.9,0.2-1.3
		c0.2-0.4,0.5-0.7,1-0.9c0.4-0.2,0.9-0.2,1.3,0.1c1.3,0.7,2.6,1.2,3.8,1.5c1.2,0.3,2.3,0.4,3.3,0.4c4.2,0,6.3-2.1,6.3-6.3v-3.5
		c-0.6,1.3-1.6,2.4-3,3.1c-1.3,0.8-2.8,1.1-4.5,1.1c-2,0-3.7-0.5-5.2-1.4c-1.5-0.9-2.6-2.2-3.4-3.8c-0.8-1.6-1.2-3.6-1.2-5.8
		c0-2.2,0.4-4.1,1.2-5.7c0.8-1.6,2-2.9,3.4-3.8c1.5-0.9,3.2-1.4,5.2-1.4c1.7,0,3.1,0.4,4.5,1.1c1.3,0.7,2.3,1.7,2.9,3v-1.7
		c0-1.5,0.8-2.3,2.3-2.3s2.3,0.8,2.3,2.3v18.2c0,3.5-0.9,6.1-2.7,7.8C793.3,675.1,790.7,676,787.3,676z M787,663.3
		c1.9,0,3.5-0.7,4.6-2c1.1-1.3,1.7-3.1,1.7-5.4c0-2.3-0.6-4.1-1.7-5.4c-1.1-1.3-2.7-2-4.6-2s-3.5,0.7-4.6,2
		c-1.1,1.3-1.7,3.1-1.7,5.4c0,2.3,0.6,4.1,1.7,5.4C783.5,662.6,785,663.3,787,663.3z"/>
	<path d="M814.6,667.8c-3.6,0-6.5-1-8.6-3.1c-2.1-2-3.1-4.8-3.1-8.4c0-2.3,0.5-4.3,1.4-6c0.9-1.7,2.2-3.1,3.8-4.1
		c1.6-1,3.5-1.4,5.6-1.4c3,0,5.4,1,7.2,2.9c1.7,1.9,2.6,4.6,2.6,8c0,1-0.6,1.5-1.8,1.5h-14.4c0.3,4.6,2.8,6.9,7.3,6.9
		c0.9,0,1.9-0.1,2.9-0.3c1-0.2,2-0.6,2.9-1.2c0.6-0.4,1.2-0.5,1.7-0.4c0.5,0.1,0.8,0.4,1,0.8s0.2,0.9,0.1,1.4s-0.5,0.9-1.1,1.3
		c-1,0.7-2.2,1.2-3.6,1.6C817.1,667.7,815.8,667.8,814.6,667.8z M813.9,648.1c-1.9,0-3.4,0.6-4.5,1.8s-1.8,2.7-2,4.7h12.4
		c-0.1-2.1-0.6-3.6-1.6-4.8C817.1,648.7,815.7,648.1,813.9,648.1z"/>
	<path d="M840.4,667.8c-1.7,0-3.1-0.4-4.4-1.1c-1.3-0.7-2.3-1.7-2.9-3v1.7c0,1.5-0.7,2.3-2.2,2.3c-1.5,0-2.3-0.8-2.3-2.3v-27.9
		c0-1.5,0.8-2.3,2.3-2.3c1.5,0,2.3,0.8,2.3,2.3v11.4c0.7-1.2,1.6-2.2,2.9-2.9c1.3-0.7,2.7-1.1,4.4-1.1c2,0,3.7,0.5,5.1,1.4
		c1.5,0.9,2.6,2.3,3.4,4c0.8,1.7,1.2,3.7,1.2,6.1c0,2.4-0.4,4.4-1.2,6.1c-0.8,1.7-1.9,3-3.4,4C844,667.4,842.3,667.8,840.4,667.8z
		 M839.2,664.3c1.9,0,3.4-0.7,4.5-2c1.1-1.4,1.7-3.3,1.7-5.9c0-2.6-0.6-4.5-1.7-5.9c-1.1-1.3-2.6-2-4.5-2s-3.4,0.7-4.5,2
		c-1.1,1.3-1.7,3.3-1.7,5.9c0,2.6,0.6,4.5,1.7,5.9C835.8,663.6,837.3,664.3,839.2,664.3z"/>
	<path d="M863.1,667.8c-5.3,0-8-3-8-8.9v-11.6c0-1.5,0.8-2.3,2.3-2.3c1.5,0,2.3,0.8,2.3,2.3V659c0,1.8,0.4,3.1,1.1,3.9
		c0.7,0.8,1.9,1.3,3.4,1.3c1.7,0,3.1-0.6,4.2-1.7c1.1-1.1,1.6-2.7,1.6-4.6v-10.5c0-1.5,0.8-2.3,2.3-2.3c1.5,0,2.3,0.8,2.3,2.3v18.1
		c0,1.5-0.7,2.3-2.2,2.3c-1.5,0-2.2-0.8-2.2-2.3v-1.5c-0.7,1.3-1.7,2.3-2.9,2.9C866,667.5,864.7,667.8,863.1,667.8z"/>
	<path d="M890.8,667.8c-2.3,0-4.2-0.5-5.9-1.4s-2.9-2.3-3.8-4c-0.9-1.7-1.4-3.8-1.4-6.1c0-3.5,1-6.3,3-8.3c2-2,4.7-3,8.1-3
		c1.1,0,2.2,0.2,3.3,0.5c1.2,0.3,2.2,0.8,3.2,1.6c0.5,0.3,0.8,0.7,0.8,1.2c0.1,0.5,0,0.9-0.2,1.3c-0.2,0.4-0.6,0.7-1,0.8
		c-0.4,0.1-0.9,0.1-1.4-0.2c-0.7-0.5-1.5-0.9-2.2-1.1c-0.8-0.2-1.5-0.3-2.2-0.3c-2.1,0-3.8,0.7-5,2c-1.2,1.3-1.7,3.3-1.7,5.7
		c0,2.5,0.6,4.4,1.7,5.8c1.2,1.4,2.8,2.1,5,2.1c0.7,0,1.4-0.1,2.2-0.3c0.7-0.2,1.5-0.6,2.2-1.1c0.5-0.3,1-0.4,1.4-0.2
		c0.4,0.2,0.7,0.4,0.9,0.8s0.3,0.8,0.2,1.3c-0.1,0.5-0.4,0.9-0.8,1.2c-1,0.7-2,1.2-3.1,1.5C892.9,667.7,891.8,667.8,890.8,667.8z"/>
	<path d="M904.4,667.7c-1.5,0-2.3-0.8-2.3-2.3v-27.9c0-1.5,0.8-2.3,2.3-2.3c1.5,0,2.3,0.8,2.3,2.3v11.3c0.8-1.3,1.8-2.2,3.1-2.9
		c1.3-0.6,2.7-1,4.3-1c5.2,0,7.8,3,7.8,8.9v11.6c0,1.5-0.8,2.3-2.3,2.3c-1.5,0-2.3-0.8-2.3-2.3v-11.4c0-1.9-0.4-3.3-1.1-4.2
		c-0.7-0.9-1.9-1.3-3.5-1.3c-1.8,0-3.3,0.6-4.4,1.7c-1.1,1.2-1.7,2.7-1.7,4.6v10.5C906.7,667,906,667.7,904.4,667.7z"/>
	<path d="M950.5,667.8c-3.6,0-6.5-1-8.6-3.1c-2.1-2-3.1-4.8-3.1-8.4c0-2.3,0.5-4.3,1.4-6c0.9-1.7,2.2-3.1,3.8-4.1
		c1.6-1,3.5-1.4,5.6-1.4c3,0,5.4,1,7.2,2.9c1.7,1.9,2.6,4.6,2.6,8c0,1-0.6,1.5-1.8,1.5h-14.4c0.3,4.6,2.8,6.9,7.3,6.9
		c0.9,0,1.9-0.1,2.9-0.3c1-0.2,2-0.6,2.9-1.2c0.6-0.4,1.2-0.5,1.7-0.4c0.5,0.1,0.8,0.4,1,0.8s0.2,0.9,0.1,1.4s-0.5,0.9-1.1,1.3
		c-1,0.7-2.2,1.2-3.6,1.6C953.1,667.7,951.8,667.8,950.5,667.8z M949.9,648.1c-1.9,0-3.4,0.6-4.5,1.8s-1.8,2.7-2,4.7h12.4
		c-0.1-2.1-0.6-3.6-1.6-4.8C953,648.7,951.6,648.1,949.9,648.1z"/>
	<path d="M966.8,640.4c-0.9,0-1.6-0.2-2.1-0.7c-0.5-0.5-0.7-1.1-0.7-1.9c0-1.7,1-2.6,2.9-2.6s2.9,0.9,2.9,2.6
		C969.6,639.5,968.7,640.4,966.8,640.4z M966.8,667.7c-1.5,0-2.3-0.8-2.3-2.5v-17.7c0-1.6,0.8-2.4,2.3-2.4c1.5,0,2.3,0.8,2.3,2.4
		v17.7C969.1,666.9,968.3,667.7,966.8,667.7z"/>
	<path d="M977.8,667.7c-1.5,0-2.3-0.8-2.3-2.3v-18.1c0-1.5,0.7-2.3,2.2-2.3s2.2,0.8,2.2,2.3v1.7c0.8-1.3,1.8-2.3,3.1-3
		c1.3-0.7,2.8-1,4.4-1c5.2,0,7.8,3,7.8,8.9v11.6c0,1.5-0.8,2.3-2.3,2.3c-1.5,0-2.3-0.8-2.3-2.3v-11.4c0-1.9-0.4-3.3-1.1-4.2
		c-0.7-0.9-1.9-1.3-3.5-1.3c-1.8,0-3.3,0.6-4.4,1.7c-1.1,1.2-1.7,2.7-1.7,4.6v10.5C980.1,667,979.3,667.7,977.8,667.7z"/>
	<path d="M1011.9,667.8c-3.6,0-6.5-1-8.6-3.1c-2.1-2-3.1-4.8-3.1-8.4c0-2.3,0.5-4.3,1.4-6c0.9-1.7,2.2-3.1,3.8-4.1
		c1.6-1,3.5-1.4,5.6-1.4c3,0,5.4,1,7.2,2.9c1.7,1.9,2.6,4.6,2.6,8c0,1-0.6,1.5-1.8,1.5h-14.4c0.3,4.6,2.8,6.9,7.3,6.9
		c0.9,0,1.9-0.1,2.9-0.3c1-0.2,2-0.6,2.9-1.2c0.6-0.4,1.2-0.5,1.7-0.4c0.5,0.1,0.8,0.4,1,0.8s0.2,0.9,0.1,1.4s-0.5,0.9-1.1,1.3
		c-1,0.7-2.2,1.2-3.6,1.6C1014.5,667.7,1013.2,667.8,1011.9,667.8z M1011.2,648.1c-1.9,0-3.4,0.6-4.5,1.8s-1.8,2.7-2,4.7h12.4
		c-0.1-2.1-0.6-3.6-1.6-4.8C1014.4,648.7,1013,648.1,1011.2,648.1z"/>
	<path d="M1028.2,667.7c-1.5,0-2.3-0.8-2.3-2.3v-18.1c0-1.5,0.7-2.3,2.2-2.3s2.2,0.8,2.2,2.3v1.9c0.6-1.4,1.5-2.4,2.7-3.1
		c1.2-0.7,2.7-1.1,4.5-1.3c1.1-0.1,1.7,0.5,1.8,1.8c0.1,1.3-0.5,2.1-1.9,2.2l-0.9,0.1c-4,0.4-6,2.5-6,6.2v10.3
		C1030.5,667,1029.7,667.7,1028.2,667.7z"/>
	<path d="M530.2,730.3c-0.7,0-1.2-0.1-1.6-0.4c-0.4-0.3-0.6-0.7-0.6-1.2c0-0.5,0.1-0.9,0.3-1.2c0.2-0.4,0.6-0.6,1.2-0.6
		c1.5-0.1,2.6-0.5,3.3-1.2c0.7-0.7,1.1-1.9,1.1-3.4v-20.6c0-1.5,0.8-2.3,2.3-2.3c1.5,0,2.3,0.8,2.3,2.3v20.2c0,2.8-0.7,4.9-2.1,6.2
		C535,729.5,532.9,730.2,530.2,730.3z M536.1,694.7c-0.9,0-1.6-0.2-2.1-0.7c-0.5-0.5-0.7-1.1-0.7-1.9c0-1.7,1-2.6,2.9-2.6
		c1.9,0,2.8,0.9,2.8,2.6C538.9,693.9,538,694.7,536.1,694.7z"/>
	<path d="M552.7,722.2c-5.3,0-8-3-8-8.9v-11.6c0-1.5,0.8-2.3,2.3-2.3c1.5,0,2.3,0.8,2.3,2.3v11.6c0,1.8,0.4,3.1,1.1,3.9
		c0.7,0.8,1.9,1.3,3.4,1.3c1.7,0,3.1-0.6,4.2-1.7c1.1-1.1,1.6-2.7,1.6-4.6v-10.5c0-1.5,0.8-2.3,2.3-2.3c1.5,0,2.3,0.8,2.3,2.3v18.1
		c0,1.5-0.7,2.3-2.2,2.3s-2.2-0.8-2.2-2.3v-1.5c-0.7,1.3-1.7,2.3-2.9,2.9C555.6,721.8,554.2,722.2,552.7,722.2z"/>
	<path d="M572.8,722.1c-1.5,0-2.3-0.8-2.3-2.3v-18.1c0-1.5,0.7-2.3,2.2-2.3c1.5,0,2.2,0.8,2.2,2.3v1.7c0.8-1.3,1.8-2.3,3.1-3
		c1.3-0.7,2.8-1,4.4-1c5.2,0,7.8,3,7.8,8.9v11.6c0,1.5-0.8,2.3-2.3,2.3c-1.5,0-2.3-0.8-2.3-2.3v-11.4c0-1.9-0.4-3.3-1.1-4.2
		c-0.7-0.9-1.9-1.3-3.5-1.3c-1.8,0-3.3,0.6-4.4,1.7s-1.7,2.7-1.7,4.6v10.5C575.2,721.3,574.4,722.1,572.8,722.1z"/>
	<path d="M606.7,730.3c-1.6,0-3.2-0.2-4.7-0.5c-1.5-0.3-2.9-0.9-4.1-1.6c-0.5-0.3-0.9-0.7-1-1.1c-0.1-0.5-0.1-0.9,0.2-1.3
		c0.2-0.4,0.5-0.7,1-0.9c0.4-0.2,0.9-0.2,1.3,0.1c1.3,0.7,2.6,1.2,3.8,1.5c1.2,0.3,2.3,0.4,3.3,0.4c4.2,0,6.3-2.1,6.3-6.3V717
		c-0.6,1.3-1.6,2.4-3,3.1c-1.3,0.8-2.8,1.1-4.5,1.1c-2,0-3.7-0.5-5.2-1.4c-1.5-0.9-2.6-2.2-3.4-3.8c-0.8-1.6-1.2-3.6-1.2-5.8
		c0-2.2,0.4-4.1,1.2-5.7c0.8-1.6,2-2.9,3.4-3.8c1.5-0.9,3.2-1.4,5.2-1.4c1.7,0,3.1,0.4,4.5,1.1c1.3,0.7,2.3,1.7,2.9,3v-1.7
		c0-1.5,0.8-2.3,2.3-2.3c1.5,0,2.3,0.8,2.3,2.3v18.2c0,3.5-0.9,6.1-2.7,7.8C612.7,729.4,610.1,730.3,606.7,730.3z M606.3,717.6
		c1.9,0,3.5-0.7,4.6-2c1.1-1.3,1.7-3.1,1.7-5.4c0-2.3-0.6-4.1-1.7-5.4c-1.1-1.3-2.7-2-4.6-2c-1.9,0-3.5,0.7-4.6,2
		c-1.1,1.3-1.7,3.1-1.7,5.4c0,2.3,0.6,4.1,1.7,5.4C602.8,717,604.4,717.6,606.3,717.6z"/>
	<path d="M633.9,722.2c-3.6,0-6.5-1-8.6-3.1c-2.1-2-3.1-4.8-3.1-8.4c0-2.3,0.5-4.3,1.4-6c0.9-1.7,2.2-3.1,3.8-4.1s3.5-1.4,5.6-1.4
		c3,0,5.4,1,7.2,2.9c1.8,1.9,2.6,4.6,2.6,8c0,1-0.6,1.5-1.8,1.5h-14.4c0.3,4.6,2.8,6.9,7.3,6.9c0.9,0,1.9-0.1,2.9-0.3
		c1-0.2,2-0.6,2.9-1.2c0.6-0.4,1.2-0.5,1.7-0.4c0.5,0.1,0.8,0.4,1,0.8c0.2,0.4,0.2,0.9,0.1,1.4s-0.5,0.9-1.1,1.3
		c-1,0.7-2.2,1.2-3.6,1.6C636.5,722,635.1,722.2,633.9,722.2z M633.2,702.5c-1.9,0-3.4,0.6-4.5,1.8c-1.1,1.2-1.8,2.7-2,4.7H639
		c-0.1-2.1-0.6-3.6-1.6-4.8C636.4,703,635,702.5,633.2,702.5z"/>
	<path d="M650.1,722.1c-1.5,0-2.3-0.8-2.3-2.3v-18.1c0-1.5,0.7-2.3,2.2-2.3c1.5,0,2.2,0.8,2.2,2.3v1.7c0.8-1.3,1.8-2.3,3.1-3
		c1.3-0.7,2.8-1,4.4-1c5.2,0,7.8,3,7.8,8.9v11.6c0,1.5-0.8,2.3-2.3,2.3c-1.5,0-2.3-0.8-2.3-2.3v-11.4c0-1.9-0.4-3.3-1.1-4.2
		c-0.7-0.9-1.9-1.3-3.5-1.3c-1.8,0-3.3,0.6-4.4,1.7s-1.7,2.7-1.7,4.6v10.5C652.4,721.3,651.7,722.1,650.1,722.1z"/>
	<path d="M688.9,721.7c-1.7,0-2.5-0.8-2.5-2.5v-26.8c0-1.7,0.8-2.5,2.5-2.5h10.8c3.3,0,5.9,0.7,7.7,2.2s2.7,3.5,2.7,6.1
		c0,1.7-0.5,3.2-1.4,4.4c-0.9,1.2-2.1,2.1-3.7,2.7c1.8,0.5,3.3,1.4,4.3,2.7s1.5,2.9,1.5,4.9c0,2.8-0.9,5-2.8,6.5
		c-1.9,1.5-4.5,2.3-7.9,2.3H688.9z M690.9,703.8h8.1c4.4,0,6.6-1.7,6.6-5.2s-2.2-5.2-6.6-5.2h-8.1V703.8z M690.9,718.1h8.8
		c4.4,0,6.7-1.8,6.7-5.4c0-3.6-2.2-5.3-6.7-5.3h-8.8V718.1z"/>
	<path d="M723.8,722.2c-1.5,0-2.9-0.3-4.1-0.9s-2.2-1.4-2.9-2.4c-0.7-1-1.1-2.2-1.1-3.5c0-1.6,0.4-2.9,1.2-3.8s2.2-1.6,4.1-2
		c1.9-0.4,4.5-0.6,7.8-0.6h1.5v-1.2c0-1.7-0.4-3-1.1-3.7c-0.7-0.8-1.9-1.1-3.6-1.1c-1,0-2,0.1-3,0.4s-2.1,0.6-3.2,1.2
		c-0.6,0.3-1.2,0.3-1.6,0.1c-0.4-0.2-0.7-0.5-0.8-1c-0.2-0.5-0.1-0.9,0-1.4c0.2-0.5,0.6-0.8,1.1-1.1c1.3-0.6,2.6-1,3.9-1.3
		c1.3-0.3,2.5-0.4,3.7-0.4c3,0,5.3,0.7,6.7,2.2c1.4,1.4,2.2,3.7,2.2,6.7v11.6c0,1.5-0.7,2.3-2.1,2.3c-1.4,0-2.2-0.8-2.2-2.3v-1.7
		c-0.5,1.3-1.4,2.3-2.5,3C726.8,721.8,725.4,722.2,723.8,722.2z M724.7,718.9c1.6,0,3-0.6,4.1-1.7c1.1-1.1,1.6-2.6,1.6-4.3v-1.2
		h-1.5c-2.2,0-3.9,0.1-5.2,0.3c-1.3,0.2-2.1,0.6-2.7,1.1c-0.5,0.5-0.8,1.2-0.8,2.1c0,1.1,0.4,2.1,1.2,2.8
		C722.2,718.5,723.3,718.9,724.7,718.9z"/>
	<path d="M741.9,721.7c-0.7,0-1.2-0.2-1.5-0.6c-0.3-0.4-0.5-0.9-0.4-1.4s0.3-1.1,0.8-1.7l11.4-14.8h-10.6c-1.2,0-1.8-0.6-1.8-1.8
		s0.6-1.8,1.8-1.8h13.7c0.8,0,1.3,0.2,1.7,0.6c0.4,0.4,0.5,0.9,0.5,1.4c0,0.6-0.3,1.1-0.7,1.7l-11.5,14.9h11.1
		c1.2,0,1.8,0.6,1.8,1.7c0,1.2-0.6,1.8-1.8,1.8H741.9z"/>
	<path d="M769.1,722.2c-1.5,0-2.9-0.3-4.1-0.9s-2.2-1.4-2.9-2.4c-0.7-1-1.1-2.2-1.1-3.5c0-1.6,0.4-2.9,1.2-3.8s2.2-1.6,4.1-2
		c1.9-0.4,4.5-0.6,7.8-0.6h1.5v-1.2c0-1.7-0.4-3-1.1-3.7c-0.7-0.8-1.9-1.1-3.6-1.1c-1,0-2,0.1-3,0.4s-2.1,0.6-3.2,1.2
		c-0.6,0.3-1.2,0.3-1.6,0.1c-0.4-0.2-0.7-0.5-0.8-1c-0.2-0.5-0.1-0.9,0-1.4c0.2-0.5,0.6-0.8,1.1-1.1c1.3-0.6,2.6-1,3.9-1.3
		c1.3-0.3,2.5-0.4,3.7-0.4c3,0,5.3,0.7,6.7,2.2c1.4,1.4,2.2,3.7,2.2,6.7v11.6c0,1.5-0.7,2.3-2.1,2.3c-1.4,0-2.2-0.8-2.2-2.3v-1.7
		c-0.5,1.3-1.4,2.3-2.5,3C772,721.8,770.7,722.2,769.1,722.2z M770,718.9c1.6,0,3-0.6,4.1-1.7c1.1-1.1,1.6-2.6,1.6-4.3v-1.2h-1.5
		c-2.2,0-3.9,0.1-5.2,0.3c-1.3,0.2-2.1,0.6-2.7,1.1c-0.5,0.5-0.8,1.2-0.8,2.1c0,1.1,0.4,2.1,1.2,2.8
		C767.5,718.5,768.6,718.9,770,718.9z"/>
	<path d="M788.6,722.1c-1.5,0-2.3-0.8-2.3-2.3v-18.1c0-1.5,0.7-2.3,2.2-2.3s2.2,0.8,2.2,2.3v1.9c0.6-1.4,1.5-2.4,2.7-3.1
		c1.2-0.7,2.7-1.1,4.5-1.3c1.1-0.1,1.7,0.5,1.8,1.8c0.1,1.3-0.5,2.1-1.9,2.2l-0.9,0.1c-4,0.4-6,2.5-6,6.2v10.3
		C790.9,721.3,790.2,722.1,788.6,722.1z"/>
	<path d="M803.8,711.5c-0.5,0-1-0.2-1.4-0.5c-0.4-0.4-0.5-0.8-0.5-1.3c0-0.5,0.2-1,0.5-1.3c0.4-0.3,0.8-0.5,1.4-0.5h10
		c0.5,0,1,0.2,1.3,0.5c0.4,0.3,0.5,0.8,0.5,1.3c0,0.5-0.2,1-0.5,1.3s-0.8,0.5-1.3,0.5H803.8z"/>
	<path d="M824.6,721.7c-1.6,0-2.4-0.8-2.4-2.4v-27.3c0-1.6,0.8-2.4,2.4-2.4s2.4,0.8,2.4,2.4v25.7h14c1.4,0,2.1,0.7,2.1,2
		c0,1.4-0.7,2-2.1,2H824.6z"/>
	<path d="M856.8,722.2c-3.6,0-6.5-1-8.6-3.1c-2.1-2-3.1-4.8-3.1-8.4c0-2.3,0.5-4.3,1.4-6c0.9-1.7,2.2-3.1,3.8-4.1
		c1.6-1,3.5-1.4,5.6-1.4c3,0,5.4,1,7.2,2.9c1.7,1.9,2.6,4.6,2.6,8c0,1-0.6,1.5-1.8,1.5h-14.4c0.3,4.6,2.8,6.9,7.3,6.9
		c0.9,0,1.9-0.1,2.9-0.3c1-0.2,2-0.6,2.9-1.2c0.6-0.4,1.2-0.5,1.7-0.4c0.5,0.1,0.8,0.4,1,0.8s0.2,0.9,0.1,1.4s-0.5,0.9-1.1,1.3
		c-1,0.7-2.2,1.2-3.6,1.6C859.3,722,858,722.2,856.8,722.2z M856.1,702.5c-1.9,0-3.4,0.6-4.5,1.8s-1.8,2.7-2,4.7h12.4
		c-0.1-2.1-0.6-3.6-1.6-4.8C859.3,703,857.9,702.5,856.1,702.5z"/>
	<path d="M878.5,722.2c-1.3,0-2.7-0.2-4.1-0.5c-1.4-0.3-2.7-0.8-3.8-1.5c-0.5-0.3-0.8-0.7-1-1.1c-0.1-0.5-0.1-0.9,0.1-1.3
		c0.2-0.4,0.5-0.7,0.9-0.8c0.4-0.2,0.9-0.1,1.4,0.2c1.2,0.6,2.3,1.1,3.4,1.4c1.1,0.3,2.2,0.4,3.2,0.4c1.6,0,2.8-0.3,3.6-0.9
		c0.8-0.6,1.2-1.3,1.2-2.3c0-0.8-0.3-1.4-0.8-1.8c-0.5-0.4-1.4-0.8-2.4-1l-4.3-0.9c-3.8-0.8-5.7-2.7-5.7-5.9c0-2.1,0.8-3.7,2.5-5
		c1.7-1.2,3.8-1.9,6.5-1.9c2.7,0,5.1,0.7,7,2c0.5,0.3,0.8,0.7,0.9,1.1s0,0.8-0.2,1.2c-0.2,0.4-0.5,0.6-0.9,0.8
		c-0.4,0.2-0.9,0.1-1.4-0.2c-0.9-0.5-1.8-0.9-2.7-1.2c-0.9-0.3-1.8-0.4-2.6-0.4c-1.6,0-2.8,0.3-3.6,0.9c-0.8,0.6-1.2,1.4-1.2,2.4
		c0,1.5,1,2.5,3,2.9l4.3,0.9c2,0.4,3.4,1.1,4.5,2c1,0.9,1.5,2.2,1.5,3.8c0,2.1-0.8,3.8-2.5,5C883.4,721.6,881.2,722.2,878.5,722.2z"
		/>
	<path d="M903,722.2c-3.6,0-6.5-1-8.6-3.1c-2.1-2-3.1-4.8-3.1-8.4c0-2.3,0.5-4.3,1.4-6c0.9-1.7,2.2-3.1,3.8-4.1
		c1.6-1,3.5-1.4,5.6-1.4c3,0,5.4,1,7.2,2.9c1.7,1.9,2.6,4.6,2.6,8c0,1-0.6,1.5-1.8,1.5h-14.4c0.3,4.6,2.8,6.9,7.3,6.9
		c0.9,0,1.9-0.1,2.9-0.3c1-0.2,2-0.6,2.9-1.2c0.6-0.4,1.2-0.5,1.7-0.4c0.5,0.1,0.8,0.4,1,0.8s0.2,0.9,0.1,1.4s-0.5,0.9-1.1,1.3
		c-1,0.7-2.2,1.2-3.6,1.6C905.6,722,904.3,722.2,903,722.2z M902.3,702.5c-1.9,0-3.4,0.6-4.5,1.8s-1.8,2.7-2,4.7h12.4
		c-0.1-2.1-0.6-3.6-1.6-4.8C905.5,703,904.1,702.5,902.3,702.5z"/>
	<path d="M919.3,722.1c-1.5,0-2.3-0.8-2.3-2.3v-18.1c0-1.5,0.7-2.3,2.2-2.3s2.2,0.8,2.2,2.3v1.9c0.6-1.4,1.5-2.4,2.7-3.1
		c1.2-0.7,2.7-1.1,4.5-1.3c1.1-0.1,1.7,0.5,1.8,1.8c0.1,1.3-0.5,2.1-1.9,2.2l-0.9,0.1c-4,0.4-6,2.5-6,6.2v10.3
		C921.6,721.3,920.8,722.1,919.3,722.1z"/>
	<path d="M936.1,694.7c-0.9,0-1.6-0.2-2.1-0.7c-0.5-0.5-0.7-1.1-0.7-1.9c0-1.7,1-2.6,2.9-2.6s2.9,0.9,2.9,2.6
		C939,693.9,938,694.7,936.1,694.7z M936.1,722c-1.5,0-2.3-0.8-2.3-2.5v-17.7c0-1.6,0.8-2.4,2.3-2.4c1.5,0,2.3,0.8,2.3,2.4v17.7
		C938.4,721.2,937.6,722,936.1,722z"/>
	<path d="M947.1,722.1c-1.5,0-2.3-0.8-2.3-2.3v-18.1c0-1.5,0.7-2.3,2.2-2.3s2.2,0.8,2.2,2.3v1.7c0.8-1.3,1.8-2.3,3.1-3
		c1.3-0.7,2.8-1,4.4-1c5.2,0,7.8,3,7.8,8.9v11.6c0,1.5-0.8,2.3-2.3,2.3c-1.5,0-2.3-0.8-2.3-2.3v-11.4c0-1.9-0.4-3.3-1.1-4.2
		c-0.7-0.9-1.9-1.3-3.5-1.3c-1.8,0-3.3,0.6-4.4,1.7c-1.1,1.2-1.7,2.7-1.7,4.6v10.5C949.4,721.3,948.6,722.1,947.1,722.1z"/>
</g>
<path class="st1" d="M823.4,495.5h-33.9l-1.6-10.9c-1.6,4-3.9,7-7.1,9.1c-3.1,2.1-7.8,3.2-13.9,3.2c-15.4,0-23-8.3-23-24.8v-44.8
	h-8.3v-2.7h36v51c0,5.9,0.4,9.9,1.3,11.7c0.8,1.9,2.5,2.8,5.1,2.8c2.5,0,4.8-1.5,6.8-4.6c2-3.1,3-7.3,3-12.8v-45.5h-6.8v-2.7h34.5
	v68.1h8.2V495.5z"/>
<path class="st1" d="M825.7,384h36.4v108.8h8.3v2.7h-44.2v-2.7h8.2V386.7h-8.8V384z"/>
<path class="st1" d="M872.7,424.7h36.4v68.1h8.3v2.7h-44.2v-2.7h8.2v-65.4h-8.8V424.7z M895.2,414.5c-5.3,0-9-1.3-11.2-4
	c-2.2-2.7-3.3-6-3.3-10c0-4,1.2-7.2,3.6-9.8c2.4-2.6,6.1-3.9,11.1-3.9c5,0,8.7,1.2,11.3,3.5c2.6,2.3,3.9,5.7,3.9,10
	c0,4.3-1.2,7.8-3.7,10.3C904.3,413.2,900.4,414.5,895.2,414.5z"/>
<path class="st1" d="M930.8,487.1c-6.4-6.6-9.6-15.8-9.6-27.5c0-11.7,3.6-20.7,10.8-27c7.2-6.2,16.3-9.4,27.4-9.4
	c22.5,0,33.3,11.3,32.4,33.9h-41.9v5.8c0,9.7,1.2,17,3.7,22c2.5,5,6.8,7.4,12.9,7.4c11.5,0,19-6.1,22.6-18.4l2.7,0.4
	c-1.9,7.1-5.3,12.7-10.2,16.7c-4.9,4-12.3,5.9-22.1,5.9C946.8,497,937.2,493.7,930.8,487.1z M950,454.2h15.3v-7.3
	c0-8-0.5-13.5-1.4-16.4c-0.9-2.9-2.8-4.4-5.6-4.4c-2.8,0-4.9,1.6-6.2,4.7c-1.3,3.1-2,8.5-2,16.1V454.2z"/>
<path class="st1" d="M999.1,497v-26.6h1.8c2.6,8.6,6,14.7,10.4,18.1c4.4,3.5,9.8,5.2,16.4,5.2c10.1,0,15.2-3.2,15.2-9.7
	c0-2.8-1.2-4.9-3.7-6.2c-3.9-2.2-8.8-3.9-14.9-5.1c-6.7-1.8-12.4-4.2-17-7.1c-5.5-3.6-8.2-9.2-8.2-16.9s2.4-13.9,7.1-18.5
	c4.8-4.6,11.1-6.9,19-6.9c4.9,0,9.9,1.1,15,3.4c1.9,0.8,3.3,1.2,4.3,1.2c1,0,1.8-0.3,2.5-1c0.7-0.7,1.5-2,2.5-3.9h1.6v22.7h-1.8
	c-5.1-12.9-12.9-19.3-23.5-19.3c-4.7,0-8.1,0.8-10.4,2.5c-2.3,1.6-3.4,3.7-3.4,6.2c0,1.5,0.3,2.7,1,3.5c0.7,0.8,1.2,1.5,1.6,1.9
	c0.4,0.4,1,0.8,1.9,1.3c0.9,0.4,1.6,0.8,2.2,1c0.6,0.2,1.5,0.6,2.8,1c1.2,0.4,2.2,0.6,2.8,0.7c6.7,1.7,11.6,3.1,14.6,4.4
	c3,1.2,5.8,2.8,8.5,4.5c5.5,3.8,8.2,9.8,8.2,18.2c0,8.4-2.5,14.7-7.4,19c-5,4.3-11.7,6.5-20.4,6.5c-6.1,0-12.1-1.4-17.8-4.3
	c-1.2-0.8-2.1-1.2-2.8-1.2c-2.2,0-4.3,1.8-6.4,5.5H999.1z"/>
<path class="st1" d="M660.4,321h85.6v5h-14.5v113.8c0,23.7-5.4,41-16.1,51.8c-10.7,10.8-26.8,16.2-48.2,16.2
	c-14.2,0-25.5-2.7-33.9-8.2c-8.3-5.4-12.5-13.1-12.5-22.9c0-7.6,2.1-13.5,6.3-17.8c4.2-4.3,10-6.5,17.3-6.5c7.3,0,12.7,1.8,16.3,5.5
	c3.6,3.7,5.4,8.1,5.4,13.3c0,5.2-1,10.4-2.9,15.7h-10.3c-1.6,2.6-2.4,5.1-2.4,7.5c0,2.4,1.2,4.4,3.6,6.1c2.4,1.7,5.5,2.5,9.4,2.5
	c7,0,11.5-2.8,13.6-8.3c2-5.5,3-17.5,3-36V326h-19.8V321z"/>
<path class="st0" d="M593.3,189l-49.8,17c-5.9,0-10.7,4.8-10.7,10.7v153.2c0,5.9,0.1,5.1,8.1,11.1l52.3,43c5.9,0,10.7-4.8,10.7-10.7
	V199.7C604,193.8,599.2,189,593.3,189z M551,283.8c-2.7,0-4.9-2.2-4.9-4.9c0-2.7,2.2-4.9,4.9-4.9s4.9,2.2,4.9,4.9
	C555.9,281.6,553.7,283.8,551,283.8z"/>
</svg>
